<svg width="310" height="187" viewBox="0 0 310 187" fill="none" xmlns="http://www.w3.org/2000/svg">
<g clip-path="url(#clip0_3_1013)">
<path d="M236.343 184.885C232.374 181.502 229.964 176.156 230.596 170.953C231.228 165.749 235.144 160.965 240.223 159.86C245.302 158.755 251.093 161.814 252.635 166.82C253.484 157.168 254.463 147.112 259.549 138.893C264.154 131.45 272.13 126.125 280.774 125.172C289.419 124.22 298.52 127.818 303.911 134.702C309.302 141.586 310.622 151.594 306.846 159.498C304.065 165.32 298.94 169.653 293.571 173.178C276.221 184.473 255.412 189.066 234.973 186.113L236.343 184.885Z" fill="#F2F2F2"/>
<path d="M295.363 128.017C288.23 133.879 281.687 140.435 275.827 147.59C266.657 158.75 259.236 171.262 253.823 184.691C253.427 185.67 255.004 186.097 255.396 185.128C264.252 163.304 278.389 144.068 296.516 129.181C297.33 128.512 296.17 127.354 295.363 128.017Z" fill="white"/>
<path d="M98.794 183.966C104.245 179.318 107.556 171.977 106.688 164.829C105.82 157.682 100.441 151.112 93.465 149.594C86.4886 148.076 78.536 152.277 76.4171 159.154C75.2509 145.897 73.9071 132.085 66.9217 120.795C60.5965 110.573 49.6413 103.259 37.7682 101.95C25.8952 100.642 13.3944 105.584 5.98963 115.039C-1.41515 124.494 -3.22818 138.241 1.95794 149.096C5.77837 157.093 12.8169 163.044 20.1916 167.886C43.7194 183.333 72.9056 189.775 100.677 185.652" fill="#F2F2F2"/>
<path d="M17.7307 105.858C27.5274 113.909 36.5149 122.914 44.5631 132.741C52.6126 142.559 59.6993 153.141 65.7236 164.34C69.091 170.622 72.116 177.084 74.7851 183.699C75.3293 185.044 73.1638 185.63 72.6256 184.299C67.898 172.638 62.0491 161.472 55.1626 150.962C48.3097 140.49 40.4661 130.713 31.7421 121.77C26.8077 116.713 21.6016 111.935 16.1472 107.455C15.0292 106.537 16.6219 104.947 17.7307 105.858L17.7307 105.858Z" fill="white"/>
<path d="M221.523 186.591H91.4655V51.9506C91.4655 23.3049 114.563 0 142.954 0H170.035C198.425 0 221.523 23.3049 221.523 51.9506V186.591Z" fill="#F2F2F2"/>
<path d="M194.443 186.591H91.4655V51.9506C91.4371 40.9742 94.8819 30.2752 101.298 21.4114C101.535 21.0861 101.771 20.7651 102.014 20.4475C105.118 16.3404 108.811 12.7233 112.973 9.71564C113.208 9.54307 113.444 9.3735 113.683 9.20392C117.165 6.77264 120.932 4.78511 124.897 3.28658C125.133 3.19653 125.373 3.1063 125.612 3.01975C129.199 1.72838 132.917 0.843801 136.697 0.38234C136.931 0.350038 137.172 0.32476 137.413 0.299482C141.097 -0.0979557 144.812 -0.0979557 148.496 0.299482C148.736 0.32476 148.977 0.350034 149.214 0.382686C152.993 0.844177 156.71 1.72865 160.296 3.01976C160.535 3.10631 160.775 3.19654 161.011 3.28677C164.928 4.7664 168.65 6.72426 172.095 9.11668C172.335 9.28257 172.574 9.45215 172.81 9.62172C175.143 11.3017 177.334 13.1732 179.361 15.2173C180.986 16.8568 182.501 18.6045 183.895 20.4486C184.137 20.7651 184.373 21.0862 184.609 21.4109C191.026 30.2748 194.471 40.974 194.443 51.9506V186.591Z" fill="#CCCCCC"/>
<path d="M186.069 126.371C189.218 126.371 191.77 123.796 191.77 120.619C191.77 117.442 189.218 114.867 186.069 114.867C182.92 114.867 180.368 117.442 180.368 120.619C180.368 123.796 182.92 126.371 186.069 126.371Z" fill="#6C63FF"/>
<path d="M210.869 182.558H206.5L204.422 165.557L210.869 165.557L210.869 182.558Z" fill="#FFB8B8"/>
<path d="M203.38 181.298H211.805V186.651H198.075C198.075 185.948 198.212 185.252 198.479 184.602C198.746 183.953 199.136 183.363 199.629 182.866C200.121 182.369 200.706 181.975 201.35 181.706C201.993 181.437 202.683 181.298 203.38 181.298Z" fill="#2F2E41"/>
<path d="M232.604 182.558H228.236L226.157 165.557L232.605 165.557L232.604 182.558Z" fill="#FFB8B8"/>
<path d="M225.115 181.298H233.54V186.651H219.811C219.811 185.948 219.948 185.252 220.215 184.602C220.481 183.953 220.872 183.363 221.364 182.866C221.857 182.369 222.442 181.975 223.085 181.706C223.729 181.437 224.419 181.298 225.115 181.298Z" fill="#2F2E41"/>
<path d="M188.954 121.758C188.64 121.291 188.431 120.76 188.342 120.203C188.253 119.645 188.287 119.075 188.44 118.532C188.593 117.989 188.863 117.486 189.229 117.06C189.596 116.633 190.051 116.293 190.562 116.062L205.412 74.7657L212.719 78.7892L195.763 118.254C196.089 119.146 196.08 120.127 195.737 121.013C195.394 121.898 194.741 122.626 193.901 123.058C193.062 123.49 192.095 123.596 191.183 123.356C190.271 123.117 189.478 122.548 188.954 121.758Z" fill="#FFB8B8"/>
<path d="M230.373 129.518C229.887 129.237 229.469 128.853 229.147 128.391C228.825 127.929 228.607 127.402 228.508 126.846C228.41 126.29 228.434 125.719 228.578 125.174C228.722 124.628 228.983 124.121 229.342 123.688L224.742 80.0031L233.057 80.3864L234.969 123.356C235.65 124.014 236.068 124.9 236.145 125.847C236.221 126.795 235.95 127.738 235.384 128.497C234.817 129.257 233.994 129.78 233.07 129.968C232.147 130.157 231.187 129.996 230.373 129.518Z" fill="#FFB8B8"/>
<path d="M217.107 67.1164C221.94 67.1164 225.858 63.163 225.858 58.2862C225.858 53.4095 221.94 49.4561 217.107 49.4561C212.273 49.4561 208.355 53.4095 208.355 58.2862C208.355 63.163 212.273 67.1164 217.107 67.1164Z" fill="#FFB8B8"/>
<path d="M230.317 119.583H203.932L203.964 119.376C204.012 119.066 208.666 88.2992 205.233 78.2338C204.889 77.2446 204.919 76.1619 205.318 75.1939C205.718 74.2259 206.458 73.4412 207.396 72.9907H207.396C212.303 70.6591 221.723 67.788 229.673 74.7557C230.843 75.7978 231.757 77.1004 232.342 78.5602C232.927 80.0201 233.167 81.5972 233.044 83.167L230.317 119.583Z" fill="#6C63FF"/>
<path d="M209 92.8461L197.121 90.4146L202.689 77.1017C203.022 75.8123 203.849 74.7088 204.987 74.0334C206.126 73.358 207.483 73.1657 208.762 73.4988C210.041 73.8319 211.137 74.6631 211.809 75.8102C212.481 76.9572 212.675 78.3264 212.348 79.6175L209 92.8461Z" fill="#6C63FF"/>
<path d="M224.213 97.3608L223.499 80.844C222.958 77.7391 224.719 74.8039 227.429 74.3242C230.139 73.8462 232.785 75.9996 233.329 79.1273L236.013 94.5607L224.213 97.3608Z" fill="#6C63FF"/>
<path d="M229.439 117.606C233.684 133.919 234.148 154.661 233.002 177.286L227.301 176.567L216.968 133.424L211.267 177.286L204.853 176.926C202.937 153.187 201.071 132.808 204.14 119.403L229.439 117.606Z" fill="#2F2E41"/>
<path d="M222.873 65.1104C221.24 66.8652 218.208 65.9232 217.996 63.526C217.979 63.3398 217.98 63.1525 217.999 62.9667C218.109 61.9048 218.717 60.9407 218.572 59.8196C218.539 59.5405 218.436 59.2746 218.272 59.047C216.971 57.2892 213.917 59.8332 212.689 58.2419C211.936 57.2662 212.821 55.7299 212.244 54.6393C211.481 53.2 209.222 53.91 207.806 53.1218C206.23 52.2447 206.324 49.8051 207.362 48.3212C208.627 46.5115 210.845 45.5459 213.036 45.4067C215.226 45.2676 217.402 45.865 219.447 46.6692C221.77 47.5828 224.074 48.8455 225.504 50.907C227.243 53.414 227.411 56.7844 226.541 59.7159C226.012 61.4991 224.206 63.6775 222.873 65.1104Z" fill="#2F2E41"/>
<path d="M298.304 186.822H35.2335C35.1212 186.822 35.0136 186.776 34.9343 186.696C34.855 186.616 34.8105 186.507 34.8105 186.394C34.8105 186.281 34.855 186.172 34.9343 186.092C35.0136 186.011 35.1212 185.966 35.2335 185.966H298.304C298.416 185.966 298.524 186.011 298.603 186.092C298.682 186.172 298.727 186.281 298.727 186.394C298.727 186.507 298.682 186.616 298.603 186.696C298.524 186.776 298.416 186.822 298.304 186.822Z" fill="#3F3D56"/>
<path d="M166.115 147.583H119.793C119.183 147.586 118.597 147.345 118.162 146.913C117.728 146.48 117.482 145.892 117.477 145.276V40.9548C117.482 40.3393 117.728 39.7508 118.162 39.3184C118.597 38.886 119.183 38.645 119.793 38.6483H166.115C166.725 38.645 167.311 38.886 167.746 39.3184C168.18 39.7508 168.426 40.3393 168.431 40.9548V145.276C168.426 145.892 168.18 146.48 167.746 146.913C167.311 147.345 166.725 147.586 166.115 147.583Z" fill="white"/>
<path d="M168.431 72.4035H117.477V73.1225H168.431V72.4035Z" fill="#CCCCCC"/>
<path d="M168.609 113.428H117.655V114.147H168.609V113.428Z" fill="#CCCCCC"/>
<path d="M134.224 38.6484H133.511V147.942H134.224V38.6484Z" fill="#CCCCCC"/>
<path d="M152.04 38.6484H151.328V147.942H152.04V38.6484Z" fill="#CCCCCC"/>
</g>
<defs>
<clipPath id="clip0_3_1013">
<rect width="310" height="187" fill="white"/>
</clipPath>
</defs>
</svg>
