<svg width="71" height="71" viewBox="0 0 71 71" fill="none" xmlns="http://www.w3.org/2000/svg">
<path d="M35.5 70.9999C55.106 70.9999 70.9999 55.106 70.9999 35.5C70.9999 15.8939 55.106 0 35.5 0C15.8939 0 0 15.8939 0 35.5C0 55.106 15.8939 70.9999 35.5 70.9999Z" fill="#1977F3"/>
<path d="M49.3185 45.7639L50.891 35.4999H41.0463V28.8402C41.0463 26.0345 42.4192 23.2938 46.8323 23.2938H51.3104V14.5573C51.3104 14.5573 47.2467 13.8634 43.3627 13.8634C35.2553 13.8634 29.9535 18.7758 29.9535 27.677V35.4999H20.9375V45.7639H29.9535V70.5705C31.7607 70.855 33.6128 70.9998 35.4999 70.9998C37.387 70.9998 39.2391 70.8501 41.0463 70.5705V45.7639H49.3185Z" fill="white"/>
</svg>
