<svg width="72" height="72" viewBox="0 0 72 72" fill="none" xmlns="http://www.w3.org/2000/svg">
<g clip-path="url(#clip0_4_1539)">
<path d="M71.9619 36.6735C71.9619 33.7237 71.717 31.5712 71.1869 29.3389H36.717V42.6528H56.95C56.5423 45.9615 54.3395 50.9444 49.4443 54.2926L49.3756 54.7384L60.2744 62.989L61.0294 63.0626C67.9641 56.8041 71.9619 47.5958 71.9619 36.6735Z" fill="#4285F4"/>
<path d="M36.7171 71.7527C46.6295 71.7527 54.9511 68.5636 61.0294 63.0627L49.4443 54.2927C46.3441 56.4054 42.1832 57.8803 36.7171 57.8803C27.0085 57.8803 18.7684 51.6221 15.8311 42.9719L15.4005 43.0076L4.06788 51.5781L3.91968 51.9807C9.95693 63.7003 22.3579 71.7527 36.7171 71.7527Z" fill="#34A853"/>
<path d="M15.8311 42.9719C15.056 40.7396 14.6075 38.3477 14.6075 35.8763C14.6075 33.4047 15.056 31.013 15.7903 28.7808L15.7698 28.3053L4.29509 19.5972L3.91967 19.7717C1.43142 24.635 0.00366211 30.0963 0.00366211 35.8763C0.00366211 41.6564 1.43142 47.1174 3.91967 51.9807L15.8311 42.9719Z" fill="#FBBC05"/>
<path d="M36.7171 13.8721C43.611 13.8721 48.2612 16.782 50.9129 19.2138L61.2742 9.32784C54.9107 3.54778 46.6296 0 36.7171 0C22.3579 0 9.95693 8.05218 3.91968 19.7717L15.7903 28.7808C18.7684 20.1306 27.0085 13.8721 36.7171 13.8721Z" fill="#EB4335"/>
</g>
<defs>
<clipPath id="clip0_4_1539">
<rect width="72" height="72" fill="white"/>
</clipPath>
</defs>
</svg>
