<svg width="252" height="96" viewBox="0 0 252 96" fill="none" xmlns="http://www.w3.org/2000/svg">
<path d="M56.598 3.40988C50.7091 1.53042 43.8177 0.402745 36.801 0.402745C19.0088 0.402745 2.34421 7.41941 2.34421 26.5899C2.34421 43.3798 15.2499 50.3965 28.0302 56.7866C39.307 62.2997 49.9573 67.4369 49.9573 78.4631C49.9573 86.4821 44.4442 92.9976 34.5457 92.9976C23.2689 92.9976 13.8716 84.3521 1.71773 64.3045L0.464752 64.6804L3.72249 90.2411C10.4886 93.3735 20.6377 95.8795 31.0374 95.8795C49.3308 95.8795 65.7448 88.4869 65.7448 67.8128C65.7448 49.77 52.8391 42.0015 40.56 35.7366C28.9073 29.973 17.6305 25.5876 17.6305 15.4384C17.6305 8.17119 23.2689 3.28459 30.6615 3.28459C39.9335 3.28459 48.8296 11.3036 58.6028 27.5923L59.9811 27.2164L56.598 3.40988ZM97.2189 84.9786C91.7058 84.9786 88.824 81.7208 88.824 76.8342C88.824 70.9453 93.7106 65.9334 102.481 63.5527V83.7256C101.103 84.4774 99.2237 84.9786 97.2189 84.9786ZM116.264 95.7542C126.914 95.7542 131.3 88.3616 133.054 84.2268L132.803 83.7256C131.175 84.8533 129.42 85.2292 128.042 85.2292C124.033 85.2292 122.654 82.5979 122.654 79.5908V47.3893C122.654 37.6161 116.515 30.9753 103.108 30.9753C89.5758 30.9753 79.6773 37.6161 73.663 44.8834L74.1642 45.7605C79.8026 43.3798 85.5662 42.3774 90.4528 42.3774C99.349 42.3774 102.481 45.8858 102.481 53.153V60.9215C88.3228 63.9286 71.157 69.8176 71.157 83.3497C71.157 91.9952 77.6725 95.8795 85.3156 95.8795C93.3347 95.8795 99.349 91.2435 102.857 86.1063C103.985 91.7446 108.621 95.7542 116.264 95.7542ZM156.61 94.8771H161.497L179.414 52.1506C183.925 41.6256 186.807 37.992 191.067 33.2307V32.9801H175.405V33.2307C177.409 35.8619 180.166 43.6304 176.156 53.0277L168.263 71.8223L160.619 51.9C157.487 44.1316 158.364 36.1125 160.619 33.2307V32.9801H129.42V33.2307C132.803 36.8643 134.933 41.1244 139.319 52.0253L156.61 94.8771ZM215.909 84.9786C210.396 84.9786 207.514 81.7208 207.514 76.8342C207.514 70.9453 212.401 65.9334 221.171 63.5527V83.7256C219.793 84.4774 217.914 84.9786 215.909 84.9786ZM234.954 95.7542C245.604 95.7542 249.99 88.3616 251.744 84.2268L251.493 83.7256C249.865 84.8533 248.11 85.2292 246.732 85.2292C242.723 85.2292 241.344 82.5979 241.344 79.5908V47.3893C241.344 37.6161 235.205 30.9753 221.798 30.9753C208.266 30.9753 198.367 37.6161 192.353 44.8834L192.854 45.7605C198.493 43.3798 204.256 42.3774 209.143 42.3774C218.039 42.3774 221.171 45.8858 221.171 53.153V60.9215C207.013 63.9286 189.847 69.8176 189.847 83.3497C189.847 91.9952 196.363 95.8795 204.006 95.8795C212.025 95.8795 218.039 91.2435 221.547 86.1063C222.675 91.7446 227.311 95.7542 234.954 95.7542Z" fill="black"/>
</svg>
